<?xml version="1.0" encoding="iso-8859-1"?>
<!-- Uploaded to: SVG Repo, www.svgrepo.com, Generator: SVG Repo Mixer Tools -->
<svg height="800px" width="800px" version="1.1" id="Layer_1" xmlns="http://www.w3.org/2000/svg" xmlns:xlink="http://www.w3.org/1999/xlink" 
	 viewBox="0 0 512 512" xml:space="preserve">
<circle style="fill:#FFE98F;" cx="256" cy="256" r="256"/>
<path style="fill:#FFDA44;" d="M266.828,511.755c124.833-5.198,226.563-99.774,242.872-221.42L318.328,98.963L207.124,202.524
	l74.006,74.006L121.74,366.666L266.828,511.755z"/>
<path style="fill:#79D720;" d="M309.632,234.163H202.369c-8.463,0-15.324-6.861-15.324-15.324V111.575
	c0-8.463,6.861-15.324,15.324-15.324h107.265c8.463,0,15.324,6.861,15.324,15.324v107.265
	C324.956,227.304,318.097,234.163,309.632,234.163z"/>
<path style="fill:#66B31B;" d="M309.632,96.251h-53.776v137.912h53.776c8.463,0,15.324-6.861,15.324-15.324V111.575
	C324.956,103.112,318.097,96.251,309.632,96.251z"/>
<path style="fill:#4CDBC4;" d="M378.589,372.076H271.326c-8.463,0-15.324-6.861-15.324-15.324V249.487
	c0-8.463,6.861-15.324,15.324-15.324H378.59c8.463,0,15.324,6.861,15.324,15.324v107.265
	C393.912,365.216,387.053,372.076,378.589,372.076z"/>
<path style="fill:#26BEBE;" d="M378.589,234.163h-54.206v137.912h54.206c8.463,0,15.324-6.861,15.324-15.324V249.487
	C393.912,241.024,387.053,234.163,378.589,234.163z"/>
<path style="fill:#4CDBC4;" d="M271.326,234.163c-8.463,0-15.324,6.861-15.324,15.324v107.265c0,8.463,6.861,15.324,15.324,15.324
	h53.058V234.163L271.326,234.163L271.326,234.163z"/>
<path style="fill:#EA348B;" d="M240.676,372.076H133.413c-8.463,0-15.324-6.861-15.324-15.324V249.487
	c0-8.463,6.861-15.324,15.324-15.324h107.265c8.463,0,15.324,6.861,15.324,15.324v107.265
	C256,365.216,249.141,372.076,240.676,372.076z"/>
<path style="fill:#C11D68;" d="M240.676,234.163h-53.345v137.912h53.345c8.463,0,15.324-6.861,15.324-15.324V249.487
	C256,241.024,249.141,234.163,240.676,234.163z"/>
<circle style="fill:#66B31B;" cx="256" cy="165.202" r="39.279"/>
<path style="fill:#599B13;" d="M256,125.928c-0.048,0-0.095,0.003-0.143,0.003v78.55c0.048,0,0.095,0.003,0.143,0.003
	c21.694,0,39.279-17.586,39.279-39.279C295.279,143.515,277.694,125.928,256,125.928z"/>
<polygon style="fill:#C11D68;" points="141.309,337.948 187.57,257.819 233.832,337.948 "/>
<polygon style="fill:#9B2F46;" points="187.57,257.819 187.332,258.231 187.332,337.948 233.832,337.948 "/>
<polygon style="fill:#26BEBE;" points="324.956,253.971 339.792,284.031 372.965,288.851 348.96,312.248 354.626,345.286 
	324.956,329.688 295.286,345.286 300.953,312.248 276.949,288.851 310.122,284.031 "/>
<polygon style="fill:#1EA8A4;" points="372.965,288.851 339.792,284.031 324.956,253.971 324.382,255.135 324.382,329.99 
	324.956,329.688 354.626,345.286 348.96,312.248 "/>
<polygon style="fill:#26BEBE;" points="310.122,284.031 276.949,288.851 300.953,312.248 295.286,345.286 324.382,329.99 
	324.382,255.135 "/>
</svg>