<svg xmlns="http://www.w3.org/2000/svg" xml:space="preserve" viewBox="0 0 512 512"><path fill="#6a5caf" d="M511.344 274.266c.426-6.035.656-12.123.656-18.266C512 114.615 397.385 0 256 0S0 114.615 0 256c0 117.769 79.53 216.949 187.809 246.801Z"/><path fill="#423299" d="M511.344 274.266 314.991 77.913 119.096 434.087l68.714 68.714C209.522 508.787 232.385 512 256 512c135.243 0 245.976-104.875 255.344-237.734Z"/><path fill="#fff" d="m119.096 311.652 159.232 22.261-22.617-256H119.096z"/><path fill="#e8e6e6" d="m392.904 155.826-55.652-22.261-22.261-55.652h-59.28l.356 256 136.837-22.261z"/><path fill="#fff" d="m314.991 77.913 77.913 77.913h-77.913z"/><path fill="#2cdde7" d="M119.096 311.652h273.809v122.435H119.096z"/><g fill="#fff"><path d="M185.381 399.362v-20.585h-21.947v20.585h-13.471v-52.975h13.471v21.796h21.947v-21.796h13.471v52.975zM235.865 357.209v42.153h-13.471v-42.153h-15.816v-10.898h45.256v10.898zM305.796 399.362l-.076-34.434-12.714 29.136h-8.779l-12.714-29.136v34.434H259.48v-53.051h14.758l14.379 31.558 14.378-31.558h14.682v53.051zM366.195 388.086v11.276h-35.947v-52.975h13.471v41.699z"/></g><path fill="#4cdbc4" d="m381.739 250.597-8.795 25.844-49.322-16.784 8.794-25.844z"/><path fill="#fff" d="M284.912 139.762c-45.654-15.535-95.269 8.886-110.894 54.584-15.625 45.698 8.886 95.27 54.584 110.894 45.698 15.626 95.269-8.886 110.894-54.583 15.536-45.654-8.886-95.27-54.584-110.895z"/><path fill="#4cdbc4" d="m370.396 236.896-14.807 43.512c-.41 1.205.208 2.46 1.37 2.781l104.829 35.673c1.205.41 2.461-.209 2.781-1.37l14.807-43.511c.41-1.205-.208-2.461-1.37-2.781l-104.829-35.673c-1.205-.41-2.46.208-2.781 1.37zM284.912 139.762c-45.654-15.535-95.269 8.886-110.894 54.584-15.625 45.698 8.886 95.27 54.584 110.894 45.698 15.626 95.269-8.886 110.894-54.583 15.536-45.654-8.886-95.27-54.584-110.895zm35.171 104.289c-11.89 34.943-49.842 53.623-84.785 41.732-34.944-11.89-53.624-49.842-41.733-84.785 11.89-34.944 49.842-53.624 84.785-41.733 34.944 11.89 53.624 49.842 41.733 84.786z"/><path fill="#2cdde7" d="M235.619 261.997c-1.75 0-3.499-.686-4.898-1.974l-18.282-17.94a6.698 6.698 0 0 1 0-9.615c2.712-2.66 7.085-2.66 9.797 0l13.383 13.134 54.057-53.049c2.711-2.661 7.085-2.661 9.796 0 2.712 2.661 0 9.614 0 9.614l-58.955 57.856c-1.312 1.288-3.149 1.974-4.898 1.974z"/></svg>