<?xml version="1.0" standalone="no"?>
<!DOCTYPE svg PUBLIC "-//W3C//DTD SVG 20010904//EN"
 "http://www.w3.org/TR/2001/REC-SVG-20010904/DTD/svg10.dtd">
<svg version="1.0" xmlns="http://www.w3.org/2000/svg"
 width="700.000000pt" height="700.000000pt" viewBox="0 0 700.000000 700.000000"
 preserveAspectRatio="xMidYMid meet">
<metadata>
Created by potrace 1.14, written by Peter Selinger 2001-2017
</metadata>
<g transform="translate(0.000000,700.000000) scale(0.100000,-0.100000)"
fill="#000000" stroke="none">
<path d="M2470 6910 c-802 -14 -1213 -58 -1523 -161 -571 -189 -770 -568 -837
-1594 -31 -480 -31 -2833 0 -3315 67 -1020 267 -1400 837 -1589 261 -87 546
-125 1133 -153 346 -16 2492 -16 2845 0 573 27 871 67 1126 152 574 191 771
565 839 1590 21 329 33 1628 21 2413 -11 782 -18 941 -51 1242 -100 908 -387
1225 -1225 1349 -151 23 -423 45 -688 56 -325 13 -1920 20 -2477 10z m2255
-699 c472 -28 744 -80 949 -182 101 -50 159 -93 234 -174 173 -184 262 -465
302 -950 40 -496 40 -2343 0 -2840 -60 -735 -236 -1038 -690 -1189 -175 -58
-384 -92 -725 -117 -222 -16 -1983 -24 -2356 -10 -717 26 -1024 86 -1265 246
-303 202 -418 538 -454 1330 -13 290 -13 2030 0 2322 33 728 139 1077 389
1277 246 199 593 273 1386 296 367 11 2007 4 2230 -9z"/>
<path d="M2373 5320 c-524 -27 -691 -100 -761 -335 -20 -67 -29 -606 -12 -731
22 -167 78 -258 189 -308 137 -61 309 -76 906 -76 237 0 505 -5 597 -10 413
-24 508 -89 554 -379 12 -74 18 -241 24 -736 5 -354 14 -676 20 -720 36 -263
125 -371 335 -406 93 -15 627 -15 720 0 238 40 333 182 375 561 28 256 35
1788 9 2180 -29 452 -114 667 -314 798 -121 79 -267 120 -550 153 -120 14
-1841 21 -2092 9z"/>
<path d="M1950 3034 c-131 -14 -224 -54 -264 -113 -13 -20 -33 -63 -43 -96
-16 -54 -18 -102 -18 -490 0 -379 2 -437 17 -486 35 -112 97 -169 213 -195 93
-20 629 -31 805 -15 164 14 221 32 277 84 63 61 81 121 94 320 14 207 5 655
-16 751 -27 128 -82 189 -200 222 -51 14 -118 17 -445 19 -212 2 -401 1 -420
-1z"/>
</g>
</svg>
