<svg xmlns="http://www.w3.org/2000/svg" width="69.467" height="69.424" viewBox="0 0 18.38 18.369"><defs><filter id="a" width="1.121" height="1.12" x="-.048" y="-.048" style="color-interpolation-filters:sRGB"><feFlood flood-color="#9D9D9D" flood-opacity=".922" result="flood"/><feComposite in="flood" in2="SourceGraphic" operator="in" result="composite1"/><feGaussianBlur in="composite1" result="blur" stdDeviation=".4"/><feOffset dx="1.5" dy="1.5" result="offset"/><feComposite in="SourceGraphic" in2="offset" result="composite2"/></filter></defs><g style="clip-rule:evenodd;display:inline;fill-rule:evenodd;filter:url(#a);image-rendering:optimizeQuality;shape-rendering:geometricPrecision;text-rendering:geometricPrecision" transform="matrix(.27047 0 0 .26833 -25.31 -5.028)"><path d="M96.501 52.216c0 30.553 0 30.553 30.304 30.553 30.303 0 30.303 0 30.303-30.553 0-30.552 0-30.552-30.303-30.552-30.304 0-30.304 0-30.304 30.552" style="display:inline;fill:#4d4e5f;fill-opacity:1;stroke:#454655;stroke-width:3.92848;stroke-miterlimit:4;stroke-dasharray:none;stroke-opacity:1"/><path d="M102.562 52.363c0 24 0 24 24 24s24 0 24-24 0-24-24-24-24 0-24 24" style="display:inline;fill:#fff;fill-opacity:1;stroke:#4b4c5b;stroke-width:.49106;stroke-miterlimit:4;stroke-dasharray:none;stroke-opacity:1"/><path d="M110.513 42.494c0 6 0 6 10 6s10 0 10 10 0 10 6 10 6 0 6-16 0-16-16-16-16 0-16 6" style="display:inline;fill:#6eb61a;fill-opacity:1;fill-rule:evenodd;stroke:#63a317;stroke-width:.98212;stroke-miterlimit:4;stroke-dasharray:none;stroke-opacity:1"/><path d="M110.513 62.494c0 6 0 6 6 6s6 0 6-6 0-6-6-6-6 0-6 6" style="display:inline;fill:#e97f02;fill-opacity:1;fill-rule:evenodd;stroke:#d17202;stroke-width:.49106;stroke-miterlimit:4;stroke-dasharray:none;stroke-opacity:1"/></g></svg>