<svg xmlns="http://www.w3.org/2000/svg" width="62.714" height="62.725" viewBox="0 0 16.593 16.596"><g style="clip-rule:evenodd;display:inline;fill-rule:evenodd;image-rendering:optimizeQuality;shape-rendering:geometricPrecision;text-rendering:geometricPrecision"><path d="M96.501 52.216c0 30.553 0 30.553 30.304 30.553 30.303 0 30.303 0 30.303-30.553 0-30.552 0-30.552-30.303-30.552-30.304 0-30.304 0-30.304 30.552" style="display:inline;fill:#4d4e5f;fill-opacity:1;stroke:#f7f4df;stroke-width:.74239;stroke-miterlimit:4;stroke-dasharray:none;stroke-opacity:1" transform="matrix(.27047 0 0 .26833 -26 -5.713)"/><path d="M102.562 52.363c0 24 0 24 24 24s24 0 24-24 0-24-24-24-24 0-24 24" style="display:inline;fill:#fff;fill-opacity:1;stroke:#f7f4df;stroke-width:.49106;stroke-miterlimit:4;stroke-dasharray:none;stroke-opacity:1" transform="matrix(.27047 0 0 .26833 -26 -5.713)"/><path d="M110.513 42.494c0 6 0 6 10 6s10 0 10 10 0 10 6 10 6 0 6-16 0-16-16-16-16 0-16 6" style="display:inline;fill:#6eb61a;fill-opacity:1;fill-rule:evenodd;stroke:#63a317;stroke-width:.98212;stroke-miterlimit:4;stroke-dasharray:none;stroke-opacity:1" transform="matrix(.27047 0 0 .26833 -26 -5.713)"/><path d="M110.513 62.494c0 6 0 6 6 6s6 0 6-6 0-6-6-6-6 0-6 6" style="display:inline;fill:#e97f02;fill-opacity:1;fill-rule:evenodd;stroke:#d17202;stroke-width:.49106;stroke-miterlimit:4;stroke-dasharray:none;stroke-opacity:1" transform="matrix(.27047 0 0 .26833 -26 -5.713)"/></g></svg>