<svg xmlns="http://www.w3.org/2000/svg" width="221.662" height="69.424" viewBox="0 0 58.648 18.369"><defs><filter id="a" width="1.044" height="1.132" x="-.014" y="-.041" color-interpolation-filters="sRGB"><feFlood flood-color="#9D9D9D" flood-opacity=".922" result="flood"/><feComposite in="flood" in2="SourceGraphic" operator="in" result="composite1"/><feGaussianBlur in="composite1" result="blur" stdDeviation=".4"/><feOffset dx="1.5" dy="1.5" result="offset"/><feComposite in="SourceGraphic" in2="offset" result="composite2"/></filter><filter id="b" width="1.121" height="1.12" x="-.048" y="-.048" color-interpolation-filters="sRGB"><feFlood flood-color="#9D9D9D" flood-opacity=".922" result="flood"/><feComposite in="flood" in2="SourceGraphic" operator="in" result="composite1"/><feGaussianBlur in="composite1" result="blur" stdDeviation=".4"/><feOffset dx="1.5" dy="1.5" result="offset"/><feComposite in="SourceGraphic" in2="offset" result="composite2"/></filter></defs><g fill-rule="evenodd" clip-rule="evenodd" image-rendering="optimizeQuality" shape-rendering="geometricPrecision" text-rendering="geometricPrecision"><g fill="#4d4e5f" stroke="#454655" stroke-width=".517" aria-label="Sveetch" filter="url(#a)" font-family="Grand Hotel" font-size="40" paint-order="stroke fill markers" style="line-height:1.25;white-space:pre;shape-inside:url(#rect13677)" transform="translate(-65.52 -13.078) scale(.38714)"><path d="M235.732 70.485q-1.27 0-2.109-.293-.84-.274-1.328-.625-.488-.352-.684-.664-.195-.332-.195-.43 0-.351.156-.742.157-.41.39-.742.235-.352.509-.586.273-.235.488-.235.273 0 .45.352.038.04.195.195.156.157.43.332.292.157.702.293.43.137.996.137 1.23 0 2.012-.742.781-.762.781-2.05 0-.9-.43-1.602-.41-.704-1.093-1.31-.684-.605-1.563-1.171-.878-.586-1.796-1.21-.918-.626-1.797-1.349-.88-.722-1.563-1.66-.683-.937-1.113-2.11-.41-1.19-.41-2.714 0-1.309.449-2.637.45-1.328 1.23-2.52.801-1.21 1.875-2.245 1.075-1.055 2.325-1.817 1.25-.78 2.597-1.21 1.368-.45 2.735-.45 1.172 0 2.11.371.937.371 1.581 1.055.645.664.996 1.621.352.938.352 2.11 0 1.113-.39 2.187-.391 1.074-1.036 2.031-.645.957-1.465 1.778-.8.8-1.66 1.406-.84.586-1.64.918-.801.332-1.407.332-.527 0-.957-.235-.41-.254-.703-.605-.273-.371-.43-.762-.156-.41-.156-.722 0-.254.059-.332.078-.079.195-.06.137 0 .332.06.195.039.45.039.82 0 1.816-.567.996-.566 1.875-1.445.878-.88 1.464-1.934.606-1.054.606-2.05 0-1.016-.508-1.602-.488-.586-1.68-.586-.742 0-1.62.293-.86.273-1.739.781-.879.508-1.7 1.23-.82.723-1.445 1.602-.625.86-1.015 1.875-.371.996-.371 2.09 0 1.152.41 2.07.43.899 1.113 1.641.703.742 1.582 1.367.88.625 1.797 1.25.918.606 1.797 1.27.879.644 1.562 1.445.704.781 1.114 1.758.43.957.43 2.207 0 1.21-.47 2.305-.449 1.074-1.25 1.875-.8.8-1.894 1.27-1.094.468-2.344.468zm9.493-14.765q0-.567-.098-.821-.078-.254-.078-.469 0-.293.312-.469.313-.195.743-.195.996 0 1.562.527.586.508.586 1.23v10.763q0 .566.176.898.175.332.703.332.742 0 1.484-.488.762-.508 1.348-1.445.605-.958.976-2.325.391-1.367.391-3.105 0-1.211-.195-2.012-.176-.8-.43-1.289-.254-.508-.547-.762-.273-.254-.469-.41-.156-.117-.351-.137-.195-.039-.195-.214 0-.274.136-.606.157-.351.39-.644.235-.313.528-.508.293-.215.586-.215.606 0 1.23.605.626.586 1.133 1.563.528.976.86 2.226.332 1.23.332 2.52 0 2.031-.547 3.828-.547 1.797-1.563 3.145-.996 1.347-2.421 2.129-1.426.78-3.184.78-.957 0-1.621-.312-.645-.312-1.035-.84-.39-.527-.567-1.23-.175-.723-.175-1.523zm22.207 1.679q0 1.113-.391 2.285-.371 1.172-1.133 2.227-.742 1.035-1.855 1.875-1.094.82-2.54 1.25.196.507.508.976.333.45.782.781.449.332 1.035.528.605.195 1.387.195 1.171 0 2.011-.43.84-.449 1.407-1.171.586-.723.937-1.622.352-.898.527-1.816.137-.664.547-.879.43-.234.86-.117.449.117.761.508.332.37.274.898-.078.606-.274 1.387-.175.781-.546 1.582-.372.8-.958 1.582-.566.762-1.406 1.367-.84.606-1.972.977-1.133.37-2.598.37-1.367 0-2.656-.546-1.27-.527-2.266-1.523-.977-1.016-1.582-2.481-.586-1.484-.586-3.36 0-1.894.527-3.515.528-1.64 1.387-2.832.86-1.191 1.953-1.855 1.094-.684 2.246-.684.84 0 1.504.293.684.293 1.153.84.468.527.703 1.27.254.741.254 1.64zm-6.446 4.726q0 .176.02.352t.02.371q.742-.351 1.347-.898t1.035-1.25q.43-.703.664-1.524.235-.84.235-1.738 0-.664-.235-1.035-.215-.371-.605-.371-.489 0-.88.332-.37.332-.663.879-.274.527-.469 1.21-.176.665-.293 1.348-.117.684-.156 1.309-.04.605-.02 1.015z" style="-inkscape-font-specification:&quot;Grand Hotel, Normal&quot;"/><path d="M279.307 57.399q0 1.113-.391 2.285-.371 1.172-1.133 2.227-.742 1.035-1.855 1.875-1.094.82-2.54 1.25.196.507.508.976.333.45.782.781.449.332 1.035.528.605.195 1.387.195 1.171 0 2.011-.43.84-.449 1.407-1.171.586-.723.937-1.622.352-.898.527-1.816.137-.664.547-.879.43-.234.86-.117.449.117.761.508.332.37.274.898-.078.606-.274 1.387-.175.781-.546 1.582-.372.8-.958 1.582-.566.762-1.406 1.367-.84.606-1.972.977-1.133.37-2.598.37-1.367 0-2.656-.546-1.27-.527-2.266-1.523-.977-1.016-1.582-2.481-.586-1.484-.586-3.36 0-1.894.527-3.515.528-1.64 1.387-2.832.86-1.191 1.953-1.855 1.094-.684 2.246-.684.84 0 1.504.293.684.293 1.153.84.468.527.703 1.27.254.741.254 1.64zm-6.446 4.726q0 .176.02.352t.02.371q.742-.351 1.347-.898t1.035-1.25q.43-.703.664-1.524.235-.84.235-1.738 0-.664-.235-1.035-.215-.371-.605-.371-.489 0-.88.332-.37.332-.663.879-.274.527-.469 1.21-.176.665-.293 1.348-.117.684-.156 1.309-.04.605-.02 1.015z" style="-inkscape-font-specification:&quot;Grand Hotel, Normal&quot;"/><path d="M278.37 50.23q.448.04.995.06.469.039 1.133.058.664 0 1.484.02V43.59q0-.43-.078-.683-.058-.254-.136-.39-.059-.157-.137-.235-.059-.098-.059-.196 0-.117.117-.195.118-.078.313-.137.195-.058.41-.078.234-.039.45-.039.995 0 1.562.528.586.507.586 1.23v7.012q1.836 0 3.867-.04 2.05-.038 4.102-.136.273-.293.43-.215.175.078.214.371.059.293.02.723-.04.43-.157.84-.117.39-.332.683-.195.293-.449.293-2.402.059-4.258.078h-3.437V65.68q0 .977.37 1.406.372.43.997.43.605 0 1.035-.43.45-.43.762-1.074.332-.644.527-1.387.215-.761.352-1.425.117-.625.39-.899.274-.293.567-.293.234 0 .488.157.254.136.45.37.214.235.331.528.137.293.137.586v.098q0 .058-.04.175-.253.996-.702 2.09-.43 1.094-1.133 2.012-.684.918-1.64 1.523-.958.606-2.247.606-.8 0-1.484-.254-.664-.234-1.152-.781-.489-.528-.762-1.368-.274-.84-.274-2.03V53.003h-1.191q-.508-.02-.86-.039-.41-.02-.722-.039-.469 0-.82-.41-.371-.43-.508-.937-.156-.508-.04-.918.098-.43.528-.43z" style="-inkscape-font-specification:&quot;Grand Hotel, Normal&quot;"/><path d="M295.615 70.153q-1.328 0-2.578-.488-1.25-.489-2.226-1.446-.957-.957-1.543-2.363-.567-1.406-.567-3.262 0-1.719.488-3.379.489-1.66 1.348-2.949.86-1.308 2.05-2.11 1.212-.8 2.638-.8 1.035 0 1.757.43.723.41 1.172 1.015.45.586.645 1.27.215.683.215 1.21 0 .391-.215.704-.195.312-.488.527-.293.215-.645.332-.352.098-.625.078-.273-.02-.45-.195-.155-.176-.097-.527-.078-.254-.156-.625-.059-.371-.235-.703-.156-.352-.449-.586-.293-.254-.8-.254-.547 0-1.075.527-.508.508-.918 1.406-.39.899-.644 2.09-.235 1.192-.235 2.54 0 1.19.293 2.109.313.918.86 1.543.547.625 1.289.957.762.312 1.64.312 1.172 0 2.032-.43.879-.449 1.484-1.171.606-.723.977-1.622.37-.898.546-1.816.137-.664.547-.879.43-.234.86-.117.449.117.761.508.332.37.274.898-.078.606-.293 1.387-.195.781-.586 1.582-.39.8-.996 1.582-.586.762-1.445 1.367-.86.606-2.012.977-1.133.37-2.598.37z" style="-inkscape-font-specification:&quot;Grand Hotel, Normal&quot;"/><path d="M301.104 44.391q0-.43-.079-.683-.058-.254-.136-.391-.059-.156-.137-.234-.059-.098-.059-.196 0-.117.118-.195.117-.078.312-.137.195-.058.41-.078.235-.039.45-.039.996 0 1.562.527.586.508.586 1.23v13.126q.41-.84.879-1.563.488-.722 1.035-1.25.566-.547 1.191-.84.645-.312 1.387-.312.996 0 1.64.371.645.371 1.016.957t.508 1.309q.156.722.156 1.406v8.281q0 .137.02.45.02.292.117.605.098.312.293.547.215.234.606.234.605 0 1.035-.43.449-.43.761-1.074.332-.644.528-1.387.215-.761.351-1.425.117-.606.352-.88.254-.273.527-.292.293-.04.586.137.293.175.508.468.215.274.312.625.118.352.04.664-.274.996-.723 2.09-.43 1.094-1.113 2.012-.684.918-1.641 1.523-.957.606-2.246.606-.8 0-1.426-.313-.605-.293-1.055-.8-.43-.508-.664-1.192-.214-.683-.214-1.445v-8.125q0-.469-.02-.88-.02-.41-.117-.722-.078-.312-.254-.488-.156-.195-.45-.195-.429 0-1.054.586t-1.23 1.523q-.606.938-1.075 2.129-.449 1.172-.566 2.363v5.84q0 .293-.02.606 0 .293-.117.527-.097.254-.332.41-.215.176-.644.176-.293 0-.645-.078-.332-.059-.625-.254-.273-.176-.469-.528-.175-.332-.175-.898Z" style="-inkscape-font-specification:&quot;Grand Hotel, Normal&quot;"/></g><g filter="url(#b)" transform="matrix(.27047 0 0 .26833 -25.31 -5.028)"><path fill="#4d4e5f" stroke="#454655" stroke-width="3.928" d="M96.501 52.216c0 30.553 0 30.553 30.304 30.553 30.303 0 30.303 0 30.303-30.553 0-30.552 0-30.552-30.303-30.552-30.304 0-30.304 0-30.304 30.552"/><path fill="#fff" stroke="#4b4c5b" stroke-width=".491" d="M102.562 52.363c0 24 0 24 24 24s24 0 24-24 0-24-24-24-24 0-24 24"/><path fill="#6eb61a" stroke="#63a317" stroke-width=".982" d="M110.513 42.494c0 6 0 6 10 6s10 0 10 10 0 10 6 10 6 0 6-16 0-16-16-16-16 0-16 6"/><path fill="#e97f02" stroke="#d17202" stroke-width=".491" d="M110.513 62.494c0 6 0 6 6 6s6 0 6-6 0-6-6-6-6 0-6 6"/></g></g></svg>