<svg xmlns="http://www.w3.org/2000/svg" xml:space="preserve" viewBox="0 0 512 512"><circle cx="256" cy="256" r="256" style="fill:#00447d"/><path d="M267.976 511.712C403.799 505.456 512 393.369 512 256c0-8.166-.4-16.237-1.146-24.209L405.095 126.033l-82.258 69.251L131.574 375.31l136.402 136.402z" style="fill:#062964"/><path d="M134.594 378.459c39.257 39.257 93.961 36.286 107.196-13.502 13.234-49.788 22.273-25.424 50.335-53.486 32.892-32.892-1.308-63.302-14.245-76.298-12.781-12.84-42.024-47.09-75.585-13.529-28.062 28.062-3.696 37.098-53.486 50.335-49.786 13.234-53.472 67.224-14.215 106.48z" style="fill:#e2982b"/><path d="M277.909 235.203 134.477 378.335c.041.041.078.083.117.124 39.257 39.257 93.961 36.286 107.196-13.502 13.234-49.788 22.273-25.424 50.335-53.486 32.869-32.867-1.257-63.256-14.216-76.268z" style="fill:#d35933"/><path d="M290.276 95.44h28.991v226.881h-28.991z" style="fill:#eebb46" transform="rotate(-134.999 304.773 208.882)"/><path d="m224.235 288.765 10.589 10.586 160.431-160.43-10.421-10.419z" style="fill:#e2982b"/><path d="M147.437 334.093h51.993v12.29h-51.993z" style="fill:#ffbf1a" transform="rotate(-134.999 173.434 340.24)"/><path d="m168.696 344.188 18.779 18.779 8.69-8.691-18.77-18.768zM361.375 178.572l-25.402-25.402 38.447-43.303c3.701-4.168 10.15-4.36 14.091-.419l16.584 16.584c3.943 3.943 3.751 10.39-.419 14.091l-43.301 38.449z" style="fill:#e2982b"/><path d="m405.095 126.033-8.885-8.885-48.18 48.078 13.345 13.345 43.303-38.447c4.169-3.699 4.36-10.148.417-14.091z" style="fill:#d35933"/><circle cx="228.59" cy="285.082" r="27.415" style="fill:#9a421c"/><path d="m247.641 265.409-38.778 38.697c.117.121.217.252.336.372 10.707 10.705 28.065 10.705 38.771 0 10.705-10.705 10.705-28.065 0-38.771-.105-.107-.222-.194-.329-.298z" style="fill:#94252c"/></svg>