<svg xmlns="http://www.w3.org/2000/svg" xml:space="preserve" viewBox="0 0 512 512"><circle cx="256" cy="256" r="256" fill="#ff0647"/><path fill="#c1321f" d="M511.931 261.415 367.842 117.326l-63.352 70.653-82.972-82.972-6.984 21.111 76.672 76.674-131.081 61.256-12.524 135.227 112.673 112.673c137.61-2.26 248.804-113.072 251.657-250.533z"/><g fill="#fff"><path d="M147.601 314.268h9.016v85.006h-9.016zM174.011 314.268h9.016v85.006h-9.016zM200.404 314.268h9.016v85.006h-9.016zM226.814 314.268h9.016v85.006h-9.016z"/></g><g fill="#d0d1d3"><path d="M279.617 314.268h9.016v85.006h-9.016zM306.028 314.268h9.016v85.006h-9.016zM332.421 314.268h9.016v85.006h-9.016z"/></g><g fill="#fff"><path d="M253.207 314.268h9.016v85.006h-9.016z"/><path d="M253.216 399.272h3.934V314.27h-3.934"/></g><g fill="#d0d1d3"><path d="M257.155 314.268h5.082v85.006h-5.082zM358.831 314.268h9.016v85.006h-9.016z"/></g><path fill="#f4e882" d="M293.928 105.007c-2.879 17.399-36.204 36.068-36.204 36.068s-33.325-18.668-36.204-36.068l-73.914 12.319v201.328h220.238V117.326l-73.916-12.319z"/><path fill="#f3d64e" d="m367.844 117.326-73.914-12.319c-2.879 17.399-36.204 36.068-36.204 36.068s-.214-.121-.574-.329v177.909h110.694V117.326h-.002z"/><path fill="#ffebb4" d="m257.724 227.083 76.867-115.3-12.538-2.089-64.329 96.494-64.329-96.494-12.538 2.089z"/><path fill="#ffdc86" d="m334.591 111.783-12.538-2.091-64.329 96.496-.574-.862v20.897l.574.86z"/><path fill="#e2982b" d="M147.601 167.771H367.83v16.743H147.601z"/><path fill="#d35933" d="M257.155 167.771h110.692v16.743H257.155z"/><path fill="#72bd39" d="M147.601 208.006H367.83v21.251H147.601z"/><path fill="#51a448" d="M257.155 208.024h110.692v21.251H257.155z"/><g fill="#fff"><circle cx="160.134" cy="244.691" r="5.763"/><circle cx="187.044" cy="244.691" r="5.763"/><circle cx="213.954" cy="244.691" r="5.763"/><circle cx="240.864" cy="244.691" r="5.763"/></g><g fill="#e6f3ff"><circle cx="267.757" cy="244.691" r="5.763"/><circle cx="294.667" cy="244.691" r="5.763"/><circle cx="321.577" cy="244.691" r="5.763"/><circle cx="348.488" cy="244.691" r="5.763"/></g></svg>