<svg xmlns="http://www.w3.org/2000/svg" xml:space="preserve" width="800" height="800" viewBox="0 0 512 512"><circle cx="256" cy="256" r="256" fill="#c2d5d8"/><path fill="#b7c9cc" d="M466.636 401.44c-.26-.752-.592-1.468-.888-2.216-.228-.64-.528-1.252-.768-1.884-.26-.752-.592-1.472-.888-2.216-.228-.636-.528-1.252-.768-1.884-.26-.752-.592-1.468-.884-2.212-.232-.644-.528-1.252-.772-1.896-.26-.752-.588-1.46-.884-2.2-.232-.644-.532-1.26-.776-1.908-.252-.744-.584-1.456-.88-2.192-.228-.644-.528-1.256-.772-1.896-.256-.752-.592-1.472-.888-2.22-.224-.636-.524-1.252-.768-1.884-.24-.692-.552-1.36-.812-2.044-.26-.756-.596-1.488-.896-2.24-.224-.636-.524-1.252-.768-1.888-.256-.752-.588-1.472-.888-2.212-.224-.644-.528-1.256-.772-1.896-.252-.752-.588-1.464-.884-2.208-.224-.64-.524-1.252-.764-1.888-.26-.752-.596-1.472-.892-2.212-.224-.64-.528-1.252-.768-1.896-.256-.748-.592-1.468-.888-2.208-.224-.64-.524-1.252-.764-1.888-.26-.752-.596-1.472-.892-2.22-.224-.632-.524-1.248-.764-1.876-.26-.752-.596-1.48-.892-2.228-.228-.636-.528-1.248-.764-1.872-.256-.748-.588-1.456-.876-2.196-.232-.644-.536-1.264-.78-1.912-.256-.752-.592-1.472-.884-2.212-.228-.644-.532-1.256-.772-1.896-.256-.748-.592-1.46-.88-2.204-.232-.644-.532-1.252-.776-1.896-.256-.752-.588-1.468-.884-2.212-.228-.636-.528-1.252-.772-1.892-.256-.748-.588-1.468-.884-2.204-.228-.644-.528-1.252-.772-1.892-.252-.752-.588-1.468-.884-2.216-.228-.64-.528-1.252-.772-1.892-.256-.752-.588-1.464-.884-2.204-.224-.644-.528-1.252-.772-1.892-.252-.752-.588-1.472-.888-2.22-.22-.624-.516-1.224-.752-1.844-.264-.764-.604-1.5-.904-2.252-.224-.632-.524-1.248-.76-1.876-.26-.752-.6-1.48-.896-2.224-.224-.636-.524-1.248-.76-1.872-.26-.752-.596-1.476-.892-2.224-.228-.636-.528-1.252-.768-1.892-3.136-9.032-8.368-17.372-15.356-24.364l-11.312-11.312-81.788-81.728-76.132-76.128c-13.828-13.824-32.856-20.812-52.216-18.172-19.332 2.648-37.42 15.072-47.016 32.08l-33.94 84.848s.4.664 1.068 1.464l-.24.584s.4.664 1.064 1.464l-.236.584s.396.664 1.064 1.46l-.236.584s.396.664 1.064 1.464l-.236.584s.396.664 1.064 1.464l-.236.592s.396.66 1.064 1.46l-.236.584s.396.664 1.06 1.46l-.236.584s.396.664 1.064 1.464l-.236.584s.396.664 1.064 1.464l-.236.584s.396.664 1.064 1.46l-.236.584s.396.664 1.064 1.464l-.236.584s.396.664 1.064 1.464l-.236.584s.396.664 1.064 1.464l-.236.584s.396.664 1.064 1.464l-.236.584s.396.664 1.064 1.464l-.236.584s.396.664 1.064 1.464l-.236.584s.396.664 1.064 1.46l-.236.584s.396.664 1.064 1.464l-.236.584s.396.664 1.064 1.464l-.236.584s.396.664 1.064 1.464l-.236.584s.396.664 1.064 1.46l-.24.584s.4.664 1.064 1.46l-.24.584s.4.664 1.068 1.464l-.24.584s.4.664 1.068 1.46l-.24.584s.4.664 1.068 1.464l-.24.584s.4.664 1.068 1.464l-.24.584s.4.664 1.068 1.464l-.24.584s.4.664 1.068 1.46l-.24.584s.4.664 1.068 1.464l-.24.584s.4.664 1.068 1.464l-.24.584s.4.66 1.068 1.46l-.24.584s.4.664 1.068 1.464l-.24.584s.4.664 1.068 1.464l-.24.584s.396.664 1.068 1.464l-.24.584s.396.664 1.064 1.46l-.236.584s.396.664 1.064 1.464l-.236.584s.396.664 1.06 1.46l-.236.584s.396.664 1.064 1.464l-.236.584s.396.664 1.064 1.464l-.236.584s.396.664 1.064 1.464l-.236.584s.396.664 1.064 1.464l-.236.584s.396.664 1.064 1.46l-.236.584s.396.664 1.064 1.464l-.236.584s.396.664 1.064 1.464l-.236.584s.396.664 1.064 1.464l-.236.584s.396.664 1.064 1.46l-.228.628s.396.664 1.064 1.464l-.236.584s.396.664 1.064 1.464l-.236.584s.396.664 1.064 1.46l-.236.584s.396.664 1.064 1.464l-.236.584s.396.664 1.064 1.464l-.236.584s.396.664 1.06 1.46l-.236.588s.396.664 1.064 1.46l-.24.584s.4.664 1.068 1.464l-.24.584s.4.664 1.068 1.464l-.24.584s.4.66 1.068 1.46l-.24.584s.4.664 1.068 1.464l-.24.584s.4.664 1.068 1.464l-.24.584s.4.664 1.068 1.464l-.24.584s.4.664 1.068 1.46l-.24.584s.4.664 1.068 1.464l-.24.584s.4.664 1.068 1.464l-.24.584s.4.664 1.068 1.464l-.24.584s.4.664 1.068 1.464l-.24.584s.4.664 1.068 1.464l-.24.584s.4.664 1.064 1.464l-.236.584s.396.664 1.064 1.46l-.236.584s.396.664 1.06 1.46l-.236.584s.396.664 1.064 1.464l-.236.584s.396.664 1.064 1.464l-.236.584s.396.664 1.064 1.46l-.236.584s.396.664 1.064 1.464l-.236.604s.396.664 1.064 1.464l-.236.584s.396.664 1.064 1.46l-.236.584s.396.664 1.064 1.464l-.236.584s.396.664 1.064 1.464l-.236.584s.396.664 1.064 1.464l-.236.584s.396.664 1.064 1.46l-.236.584s.396.664 1.064 1.464l-.236.584s.396.664 1.064 1.464l-.236.584s.396.66 1.064 1.46l-.236.584s.396.664 1.064 1.464l-.236.584s.396.664 1.06 1.46l-.236.584s.396.664 1.064 1.464l-.236.584s.396.664 1.064 1.46l-.236.584s.396.664 1.064 1.464l-.24.584s.4.664 1.068 1.464l-.24.584s.4.664 1.068 1.464l-.24.584s.4.664 1.068 1.464l-.24.584s.4.664 1.068 1.464l-.24.584s.4.664 1.068 1.464l-.24.584s.4.664 1.068 1.46l-.24.584s.4.664 1.068 1.464l-.24.584s.4.664 1.068 1.464l-.24.584s.4.664 1.068 1.464l-.24.584s.4.664 1.068 1.464l-.24.584s.4.664 1.068 1.464l-.24.584s.396.664 1.06 1.46l-.236.588s.396.664 1.064 1.46l-.236.584s.396.664 1.064 1.464l-.236.584s.396.664 1.064 1.464l-.236.584s.396.664 1.064 1.464l-.236.584s.396.664 1.064 1.464l-.236.584s.396.664 1.064 1.464l-.236.584s.396.664 1.064 1.464l-.236.584s.396.664 1.064 1.46l-.236.584s.396.664 1.064 1.464l-.236.584s.396.664 1.064 1.464l-.236.584s.396.664 1.064 1.464l-.236.584s.396.664 1.064 1.464l-.236.584s.396.664 1.064 1.464l-.236.584s.396.664 1.064 1.464l-.236.584s.396.664 1.06 1.46l-.236.584s.396.664 1.064 1.464l-.236.584s.396.664 1.064 1.464l-.236.584s.396.664 1.064 1.46l-.236.584s.396.664 1.064 1.464l-.24.584s.4.664 1.068 1.464l-.24.584s.4.664 1.068 1.46l-.24.584s.4.664 1.068 1.464l-.24.584s.4.664 1.068 1.464l-.24.584s.4.664 1.068 1.46l-.232.632s.4.664 1.068 1.464l-.24.584s.4.664 1.068 1.464l-.24.584s.4.664 1.068 1.464l-.24.584s.4.664 1.068 1.464l-.24.584s.4.664 1.068 1.464l-.24.584s.4.664 1.064 1.46l-.24.588s.4.664 1.068 1.46l-.24.584s.396.664 1.068 1.464l-.24.584s.396.664 1.064 1.464l-.236.584s.396.664 1.064 1.46l-.236.584s.396.664 1.064 1.464l-.236.584s.396.664 1.064 1.464l-.236.584s.396.664 1.064 1.46l-.236.584s.396.664 1.064 1.464l-.236.584s.396.664 1.064 1.464l-.236.584s.396.664 1.064 1.464l-.236.584s.396.664 1.064 1.464l-.236.584s.396.664 1.064 1.464l-.236.584s.396.664 1.064 1.464l-.236.584s.396.664 1.064 1.46l-.236.584s.396.664 1.064 1.464l-.236.584s.396.664 1.06 1.46l-.236.588s.396.664 1.064 1.46l-.236.584s.396.664 1.064 1.464l-.236.584s.396.664 1.064 1.464l-.236.584s.396.664 1.064 1.46l-.236.584s.368.608.98 1.364c7.96.752 16.024 1.172 24.184 1.172 87.36.24 164.448-43.536 210.648-110.32z"/><path fill="#66401e" d="M428.892 328.9c2.64-19.36-4.348-38.392-18.176-52.22l-93.096-93.096-76.132-76.132C227.66 93.628 208.632 86.64 189.272 89.28c-19.332 2.652-37.42 15.072-47.016 32.08l-33.94 84.852s4.208 7.104 8.44 2.88c16.976-16.984 67.92-67.924 67.92-67.924l11.312 11.312-65.052 65.052c-3.12 3.12-3.12 8.188 0 11.312 3.12 3.124 8.192 3.124 11.316 0l65.056-65.056L218.62 175.1l-65.056 65.056a8.01 8.01 0 0 0 0 11.316c3.124 3.12 8.196 3.12 11.312 0l65.06-65.056 11.308 11.308-65.052 65.06a7.998 7.998 0 1 0 11.312 11.312l65.056-65.056 11.312 11.316-65.056 65.056c-3.12 3.12-3.12 8.192 0 11.312a8.003 8.003 0 0 0 11.316 0l65.052-65.056L286.5 242.98l-65.056 65.056c-3.124 3.124-3.124 8.192 0 11.312 3.12 3.124 8.188 3.124 11.312 0l65.056-65.052 11.312 11.312-65.052 65.056a7.998 7.998 0 1 0 11.312 11.312l65.056-65.056 11.312 11.316-65.056 65.052a8.003 8.003 0 0 0 0 11.316c3.124 3.116 8.192 3.116 11.312 0l65.056-65.06 11.316 11.312-65.056 65.06c-3.124 3.12-3.124 8.192 0 11.308a7.998 7.998 0 0 0 11.312 0l65.056-65.056 11.312 11.316s-50.944 50.944-67.92 67.924c-4.236 4.232 2.872 8.436 2.872 8.436l84.856-33.936c17.004-9.588 29.428-27.676 32.08-47.008z"/><path fill="#4d3016" d="M428.892 328.9c2.64-19.36-4.348-38.392-18.176-52.22l-11.312-11.312c13.828 13.828 20.816 32.86 18.176 52.22-2.652 19.328-15.076 37.42-32.084 47.02L319.5 391c-4.104 4.108-7.7 7.704-10.416 10.416-4.236 4.236 2.872 8.44 2.872 8.44l84.856-33.94c17.004-9.596 29.428-27.684 32.08-47.016z"/></svg>