<svg xmlns="http://www.w3.org/2000/svg" xml:space="preserve" width="800" height="800" viewBox="0 0 512 512"><circle cx="256" cy="256" r="256" style="fill:#ffc91b"/><g fill="#092e20" style="display:inline;overflow:visible"><path d="M182.637 25.23h10.5v48.602c-5.386 1.023-9.341 1.432-13.636 1.432-12.82 0-19.501-5.795-19.501-16.91 0-10.704 7.091-17.658 18.068-17.658 1.705 0 3 .136 4.569.545zm0 24.465c-1.227-.409-2.25-.545-3.545-.545-5.319 0-8.387 3.273-8.387 9 0 5.591 2.932 8.66 8.318 8.66 1.159 0 2.114-.069 3.614-.273z"/><path d="M209.841 41.445v24.341c0 8.387-.613 12.41-2.454 15.887-1.705 3.341-3.955 5.455-8.592 7.773l-9.75-4.636c4.637-2.182 6.887-4.09 8.318-7.024 1.5-3 1.978-6.477 1.978-15.613V41.445Zm-10.5-16.16h10.5V36.06h-10.5ZM216.183 43.832c4.637-2.182 9.069-3.136 13.91-3.136 5.387 0 8.932 1.431 10.5 4.227.886 1.568 1.159 3.613 1.159 7.978v21.34c-4.705.682-10.637 1.16-15 1.16-8.795 0-12.75-3.07-12.75-9.888 0-7.364 5.25-10.773 18.136-11.864v-2.318c0-1.909-.954-2.59-3.613-2.59-3.887 0-8.25 1.09-12.342 3.205v-8.114Zm16.433 16.704c-6.955.682-9.205 1.773-9.205 4.5 0 2.046 1.296 3 4.159 3 1.569 0 3-.135 5.046-.476zM246.866 43.082c6.204-1.637 11.318-2.386 16.5-2.386 5.387 0 9.273 1.227 11.592 3.613 2.182 2.25 2.863 4.704 2.863 9.955v20.59h-10.5v-20.18c0-4.023-1.364-5.524-5.114-5.524-1.431 0-2.727.136-4.841.75v24.955h-10.5zM281.903 80.582c3.682 1.91 7.364 2.795 11.25 2.795 6.886 0 9.818-2.795 9.818-9.477v-.204c-2.045 1.022-4.09 1.431-6.818 1.431-9.204 0-15.069-6.068-15.069-15.681 0-11.933 8.66-18.682 24-18.682 4.501 0 8.66.476 13.706 1.499l-3.596 7.574c-2.795-.546-.223-.073-2.336-.278v1.092l.136 4.43.068 5.729c.068 1.43.068 2.863.136 4.295v2.864c0 9-.75 13.227-3 16.704-3.272 5.114-8.932 7.637-16.977 7.637-4.091 0-7.636-.614-11.318-2.046v-9.682zm20.864-31.364h-1.09c-2.046-.068-4.432.477-6.069 1.5-2.522 1.432-3.818 4.023-3.818 7.704 0 5.251 2.591 8.25 7.227 8.25 1.432 0 2.592-.272 3.955-.68v-3.614c0-1.228-.068-2.592-.068-4.023l-.068-4.84-.068-3.478v-.819zM335.09 40.559c10.5 0 16.91 6.614 16.91 17.318 0 10.978-6.681 17.865-17.319 17.865-10.5 0-16.978-6.614-16.978-17.25 0-11.047 6.683-17.933 17.388-17.933zm-.205 26.727c4.024 0 6.41-3.34 6.41-9.136 0-5.727-2.318-9.137-6.34-9.137-4.16 0-6.547 3.342-6.547 9.137 0 5.796 2.387 9.136 6.477 9.136z"/></g><path d="M271.107 511.545c118.312-6.887 215.04-94.11 236.454-207.927L316.456 112.512l-42.593 211.344-4.646-4.646-94.694 95.751 96.584 96.584z" style="fill:#eaa22f"/><path d="M253.764 87.99c-51.057 0-92.448 41.391-92.448 92.448l2.779 43.611-27.495-13.748a23.119 23.119 0 0 0-26.686 4.33c-8.33 8.33-9.064 21.59-1.705 30.789l62.202 77.752 4.113 91.788h171.689V180.438c-.001-51.059-41.392-92.448-92.449-92.448z" style="fill:#386895"/><path d="M346.212 180.438c0-50.693-40.807-91.836-91.36-92.42v326.944h91.36V180.438z" style="fill:#273b7a"/></svg>