<svg xmlns="http://www.w3.org/2000/svg" xml:space="preserve" viewBox="0 0 451.296 451.296"><circle cx="225.648" cy="225.638" r="225.638" style="fill:#45b39c"/><path d="M446.043 274.056 322.142 150.154 268.36 96.373H129.158v258.566l96.353 96.353c.046 0 .091.003.137.003 108 .001 198.228-75.89 220.395-177.239z" style="opacity:.1;enable-background:new"/><path d="M268.358 96.355H129.157v258.566h192.982V150.136z" style="fill:#ebf0f3"/><path d="M268.358 150.136h53.781l-53.781-53.781z" style="fill:#e1e6e9"/><path d="M322.139 150.136h-53.781l53.781 37.279zM154.122 131.441h83.41v7.05h-83.41zM154.122 159.181h83.41v7.05h-83.41zM154.122 186.931h143.002v7.05H154.122zM154.122 214.692h143.002v7.05H154.122zM154.122 242.432h143.002v7.05H154.122zM154.122 270.193h143.002v7.05H154.122zM154.122 297.933h143.002v7.05H154.122zM154.122 325.683h143.002v7.05H154.122z" style="fill:#d5d6db"/><path d="M246.137 273.817c0-3.329-.447-6.547-1.206-9.643l10.558-8.587-9.094-15.751-12.71 4.846a40.316 40.316 0 0 0-16.711-9.658l-2.156-13.419H196.63l-2.155 13.419a40.316 40.316 0 0 0-16.711 9.658l-12.71-4.847-9.094 15.751 10.558 8.588c-.759 3.095-1.206 6.313-1.206 9.642 0 3.329.447 6.547 1.206 9.643l-10.558 8.588 9.094 15.751 12.71-4.847a40.316 40.316 0 0 0 16.711 9.658l2.155 13.419h18.188l2.156-13.419a40.316 40.316 0 0 0 16.711-9.658l12.71 4.847 9.094-15.751-10.558-8.588c.759-3.095 1.206-6.312 1.206-9.642zm-40.411 27.734c-15.317 0-27.734-12.417-27.734-27.734 0-15.317 12.417-27.734 27.734-27.734 15.317 0 27.734 12.417 27.734 27.734 0 15.317-12.417 27.734-27.734 27.734z" style="fill:#e56353"/><path d="M205.726 246.083c-15.317 0-27.734 12.417-27.734 27.734 0 15.317 12.417 27.734 27.734 27.734 15.317 0 27.734-12.417 27.734-27.734 0-15.317-12.417-27.734-27.734-27.734zm0 51.184c-12.951 0-23.45-10.499-23.45-23.45 0-12.951 10.499-23.45 23.45-23.45 12.951 0 23.45 10.499 23.45 23.45 0 12.951-10.499 23.45-23.45 23.45z" style="fill:#d15241"/><path d="M289.335 217.007c0-2.136-.286-4.2-.774-6.185l6.773-5.509-5.834-10.103-8.152 3.109a25.865 25.865 0 0 0-10.719-6.195l-1.383-8.607H257.58l-1.383 8.607a25.872 25.872 0 0 0-10.719 6.195l-8.152-3.109-5.833 10.103 6.772 5.509a25.89 25.89 0 0 0-.773 6.185c0 2.135.287 4.199.773 6.185l-6.772 5.508 5.833 10.103 8.152-3.109a25.865 25.865 0 0 0 10.719 6.195l1.383 8.607h11.666l1.383-8.607a25.859 25.859 0 0 0 10.719-6.195l8.152 3.109 5.833-10.103-6.773-5.508c.488-1.985.775-4.05.775-6.185zm-25.921 17.789c-9.825 0-17.789-7.965-17.789-17.789 0-9.825 7.964-17.789 17.789-17.789 9.825 0 17.789 7.964 17.789 17.789 0 9.825-7.964 17.789-17.789 17.789z" style="fill:#44c4a1"/><path d="M263.414 199.218c-9.825 0-17.789 7.964-17.789 17.789 0 9.825 7.964 17.789 17.789 17.789 9.825 0 17.789-7.965 17.789-17.789 0-9.825-7.964-17.789-17.789-17.789zm0 32.83c-8.308 0-15.042-6.734-15.042-15.042 0-8.307 6.734-15.042 15.042-15.042 8.307 0 15.041 6.734 15.041 15.042s-6.734 15.042-15.041 15.042z" style="fill:#3ea69b"/></svg>