<?xml version="1.0" encoding="iso-8859-1"?>
<!-- Uploaded to: SVG Repo, www.svgrepo.com, Generator: SVG Repo Mixer Tools -->
<svg version="1.1" id="Layer_1" xmlns="http://www.w3.org/2000/svg" xmlns:xlink="http://www.w3.org/1999/xlink" 
	 viewBox="0 0 512 512" xml:space="preserve">
<path style="fill:#889391;" d="M503.729,191.24C475.046,81.213,375.011,0,256,0C114.615,0,0,114.615,0,256
	c0,129.532,96.208,236.575,221.063,253.617L503.729,191.24z"/>
<path style="fill:#616F6D;" d="M512,256c0-22.374-2.878-44.075-8.271-64.76L400.696,88.206l-146.054,66.785H75.687l-20.035,55.652
	l102.562,102.563l-102.562,31l165.41,165.41C232.487,511.176,244.147,512,256,512C397.385,512,512,397.384,512,256z"/>
<rect x="233.739" y="99.339" style="fill:#FEF2CC;" width="155.826" height="55.652"/>
<polygon style="fill:#FBD867;" points="356.174,154.991 356.174,455.513 306.087,455.513 294.957,444.383 306.087,433.252 
	333.913,433.252 333.913,388.73 306.087,388.73 294.957,377.6 306.087,366.47 333.913,366.47 333.913,321.948 306.087,321.948 
	294.957,310.817 306.087,299.687 333.913,299.687 333.913,154.991 "/>
<g>
	<polygon style="fill:#FDE59A;" points="306.087,433.252 306.087,455.513 256,455.513 256,154.991 278.261,154.991 278.261,299.687 
		306.087,299.687 306.087,321.948 278.261,321.948 278.261,366.47 306.087,366.47 306.087,388.73 278.261,388.73 278.261,433.252 	
		"/>
	<polygon style="fill:#FDE59A;" points="400.696,154.989 378.435,154.989 378.435,110.467 244.87,110.467 244.87,154.989 
		222.609,154.989 222.609,88.206 400.696,88.206 	"/>
</g>
<rect x="122.435" y="199.513" style="fill:#263230;" width="22.261" height="133.565"/>
<g>
	<polygon style="fill:#7DDCD4;" points="400.696,255.163 456.348,255.163 456.348,210.641 400.696,199.511 	"/>
	<polygon style="fill:#7DDCD4;" points="133.565,299.685 113.252,321.946 133.565,344.206 211.478,344.206 211.478,299.685 	"/>
</g>
<rect x="55.652" y="299.687" style="fill:#B1EAE5;" width="77.913" height="44.522"/>
<polygon style="fill:#F9BE02;" points="456.348,143.861 456.348,210.643 256,210.643 256,188.383 434.087,188.383 434.087,166.122 
	256,166.122 256,143.861 "/>
<polygon style="fill:#FBD867;" points="256,188.383 256,210.643 55.652,210.643 55.652,143.861 256,143.861 256,166.122 
	77.913,166.122 77.913,188.383 "/>
<polygon style="fill:#F9BE02;" points="367.304,232.904 367.304,255.165 306.087,255.165 294.957,244.035 306.087,232.904 "/>
<rect x="244.87" y="232.904" style="fill:#FBD867;" width="61.217" height="22.261"/>
</svg>